<?xml version="1.0" encoding="UTF-8"?>
<svg version="1.1" xmlns="http://www.w3.org/2000/svg" width="500" height="500">
<path d="M0 0 C165 0 330 0 500 0 C500 165 500 330 500 500 C335 500 170 500 0 500 C0 335 0 170 0 0 Z " fill="#FEFEFE" transform="translate(0,0)"/>
<path d="M0 0 C1.29466942 -0.00856522 1.29466942 -0.00856522 2.61549377 -0.01730347 C3.56499405 -0.01842133 4.51449432 -0.01953918 5.49276733 -0.02069092 C6.49148361 -0.02565582 7.49019989 -0.03062073 8.5191803 -0.03573608 C11.84029828 -0.05039731 15.16136832 -0.05717056 18.48251343 -0.06268311 C20.79545086 -0.06843664 23.10838828 -0.07419435 25.42132568 -0.07995605 C30.28547386 -0.09048091 35.14960546 -0.0963121 40.01376343 -0.09979248 C46.20913104 -0.10524357 52.40427511 -0.12919221 58.59957314 -0.15776443 C63.3869487 -0.17651952 68.17427218 -0.18160348 72.96168137 -0.18312836 C75.24274273 -0.1861326 77.52380367 -0.1940846 79.80482864 -0.20731354 C108.13214133 -0.3597067 133.82665613 4.21457403 155.18954468 24.31231689 C166.53447799 36.03082686 172.55647242 50.65719905 176.88095093 66.14044189 C177.1980603 67.26450439 177.51516968 68.38856689 177.84188843 69.54669189 C186.66329743 105.53105339 185.74771881 155.08055537 166.49813843 187.69512939 C154.21565061 206.26720034 136.54921623 217.64487774 114.81845093 222.32794189 C106.29043609 223.81187015 97.83178158 224.29405047 89.18637085 224.33331299 C88.16881714 224.34149048 87.15126343 224.34966797 86.10287476 224.35809326 C82.77239545 224.3826896 79.4419576 224.39938535 76.11141968 224.41387939 C74.39690833 224.42186491 74.39690833 224.42186491 72.64776039 224.43001175 C66.61197203 224.45661514 60.57620357 224.4760412 54.54037476 224.49053955 C49.54995635 224.50393665 44.55994123 224.53191356 39.56967163 224.5725708 C33.5280764 224.62177594 27.48684968 224.6466431 21.44506264 224.65376663 C19.14650751 224.6604874 16.84796091 224.67573073 14.54952049 224.69965744 C11.34209122 224.73117661 8.13610097 224.73136686 4.92855835 224.72393799 C3.98041763 224.74034332 3.03227692 224.75674866 2.05540466 224.77365112 C-2.4791057 224.73058696 -4.48690593 224.61561622 -8.20857239 221.81808472 C-10.70979985 218.31247075 -10.73647627 216.11136137 -10.71279907 211.82794189 C-10.71283936 211.13660156 -10.71287964 210.44526123 -10.71292114 209.73297119 C-10.70758063 208.27723048 -10.6900602 206.82148908 -10.66104126 205.36602783 C-10.61916716 203.14670039 -10.61997739 200.93041061 -10.62686157 198.71075439 C-10.53710578 186.57111245 -10.53710578 186.57111245 -7.11904907 182.14044189 C-3.11904907 179.14044189 -3.11904907 179.14044189 13.88095093 179.14044189 C13.88095093 134.92044189 13.88095093 90.70044189 13.88095093 45.14044189 C8.27095093 45.14044189 2.66095093 45.14044189 -3.11904907 45.14044189 C-8.29828776 40.99705094 -9.39932166 39.30206864 -10.11904907 33.14044189 C-10.43047444 28.38649752 -10.48913863 23.65357125 -10.49404907 18.89044189 C-10.51854126 17.62458252 -10.54303345 16.35872314 -10.56826782 15.05450439 C-10.57213501 13.84020752 -10.5760022 12.62591064 -10.57998657 11.37481689 C-10.58820435 10.27363525 -10.59642212 9.17245361 -10.60488892 8.03790283 C-10.00924098 4.48556632 -8.89467319 3.3555102 -6.11904907 1.14044189 C-3.82916079 -0.00450225 -2.54554876 0.01007361 0 0 Z " fill="#000000" transform="translate(165.11904907226563,132.85955810546875)"/>
<path d="M0 0 C32.7147541 0 32.7147541 0 42 4 C42.91265625 4.36222656 43.8253125 4.72445312 44.765625 5.09765625 C55.69261063 9.92319631 61.65161386 18.0439463 66.20368958 28.90769958 C70.66859429 40.63920742 71.6330107 53.01917194 71.46655273 65.4519043 C71.43728507 67.82996343 71.44607676 70.20581684 71.45898438 72.58398438 C71.43596352 89.53544735 68.3778703 107.45323088 56 120 C39.78551656 133.96940111 20.96372217 133 0 133 C0 89.11 0 45.22 0 0 Z " fill="#FDFDFD" transform="translate(227,179)"/>
</svg>
