<?xml version="1.0" encoding="UTF-8"?>
<svg version="1.1" xmlns="http://www.w3.org/2000/svg" width="500" height="500">
<path d="M0 0 C165 0 330 0 500 0 C500 165 500 330 500 500 C335 500 170 500 0 500 C0 335 0 170 0 0 Z " fill="#6356E5" transform="translate(0,0)"/>
<path d="M0 0 C1.29466942 -0.00856522 1.29466942 -0.00856522 2.61549377 -0.01730347 C3.56499405 -0.01842133 4.51449432 -0.01953918 5.49276733 -0.02069092 C6.49148361 -0.02565582 7.49019989 -0.03062073 8.5191803 -0.03573608 C11.84029828 -0.05039731 15.16136832 -0.05717056 18.48251343 -0.06268311 C20.79545086 -0.06843664 23.10838828 -0.07419435 25.42132568 -0.07995605 C30.28547386 -0.09048091 35.14960546 -0.0963121 40.01376343 -0.09979248 C46.20913104 -0.10524357 52.40427511 -0.12919221 58.59957314 -0.15776443 C63.3869487 -0.17651952 68.17427218 -0.18160348 72.96168137 -0.18312836 C75.24274273 -0.1861326 77.52380367 -0.1940846 79.80482864 -0.20731354 C107.76499846 -0.35773157 134.09911529 3.94661953 155.00204468 24.19512939 C179.66989349 50.44979889 182.98682509 89.1865824 181.9859314 123.46563721 C180.81026249 153.4205874 174.46447196 183.75596092 151.86923218 205.03497314 C130.19088262 223.32737096 102.12571314 224.61943028 75.13485718 224.60919189 C72.82129232 224.6163122 70.50772919 224.62401384 68.19416809 224.63226318 C63.39138843 224.64558755 58.58877299 224.64732673 53.78598022 224.64141846 C47.63243338 224.63546804 41.47966079 224.6663889 35.32626438 224.70653534 C30.56935885 224.73233934 25.81264328 224.73529761 21.05567741 224.73164368 C18.78505408 224.7333351 16.514422 224.74297965 14.24386787 224.76078796 C11.08532636 224.78288137 7.92840206 224.77333138 4.76986694 224.75567627 C3.83743668 224.76893951 2.90500641 224.78220276 1.94432068 224.79586792 C-2.55032631 224.73738602 -4.51267064 224.59810776 -8.19865417 221.81610107 C-10.71351322 218.31218337 -10.73650919 216.11731706 -10.71279907 211.82794189 C-10.71283936 211.13660156 -10.71287964 210.44526123 -10.71292114 209.73297119 C-10.70758063 208.27723048 -10.6900602 206.82148908 -10.66104126 205.36602783 C-10.61916716 203.14670039 -10.61997739 200.93041061 -10.62686157 198.71075439 C-10.53710578 186.57111245 -10.53710578 186.57111245 -7.11904907 182.14044189 C-3.11904907 179.14044189 -3.11904907 179.14044189 12.88095093 178.14044189 C13.21095093 134.25044189 13.54095093 90.36044189 13.88095093 45.14044189 C7.94095093 45.14044189 2.00095093 45.14044189 -4.11904907 45.14044189 C-10.91919083 36.98027178 -10.35262837 31.86273411 -10.41421509 21.59283447 C-10.4257874 20.24767584 -10.44632167 18.90256496 -10.47573853 17.55767822 C-10.51837689 15.60512706 -10.5319753 13.65200999 -10.54483032 11.69903564 C-10.55941284 10.53686523 -10.57399536 9.37469482 -10.58901978 8.17730713 C-10.02221922 4.51474501 -8.98829383 3.40011819 -6.11904907 1.14044189 C-3.82916079 -0.00450225 -2.54554876 0.01007361 0 0 Z " fill="#FEFEFE" transform="translate(165.11904907226563,132.85955810546875)"/>
<path d="M0 0 C42.22504892 0 42.22504892 0 56.13671875 12.99609375 C70.28554771 27.66798478 71.36971625 47.55348372 71.375 66.8125 C71.37690338 67.56321777 71.37880676 68.31393555 71.38076782 69.08740234 C71.37722409 81.45602446 71.12995496 93.90698723 65.8125 105.3125 C65.50425293 105.98909668 65.19600586 106.66569336 64.87841797 107.36279297 C60.18528021 117.25250115 53.08060906 124.36789711 42.7109375 128.22265625 C27.58431662 132.98600526 17.9700227 132 0 132 C0 88.44 0 44.88 0 0 Z " fill="#6356E5" transform="translate(227,179)"/>
</svg>
