<?xml version="1.0" encoding="UTF-8"?>
<svg version="1.1" xmlns="http://www.w3.org/2000/svg" width="500" height="500">
<path d="M0 0 C165 0 330 0 500 0 C500 165 500 330 500 500 C335 500 170 500 0 500 C0 335 0 170 0 0 Z " fill="#000000" transform="translate(0,0)"/>
<path d="M0 0 C1.29466942 -0.00856522 1.29466942 -0.00856522 2.61549377 -0.01730347 C3.56499405 -0.01842133 4.51449432 -0.01953918 5.49276733 -0.02069092 C6.49148361 -0.02565582 7.49019989 -0.03062073 8.5191803 -0.03573608 C11.84029828 -0.05039731 15.16136832 -0.05717056 18.48251343 -0.06268311 C20.79545086 -0.06843664 23.10838828 -0.07419435 25.42132568 -0.07995605 C30.28547386 -0.09048091 35.14960546 -0.0963121 40.01376343 -0.09979248 C46.20913104 -0.10524357 52.40427511 -0.12919221 58.59957314 -0.15776443 C63.3869487 -0.17651952 68.17427218 -0.18160348 72.96168137 -0.18312836 C75.24274273 -0.1861326 77.52380367 -0.1940846 79.80482864 -0.20731354 C107.76499846 -0.35773157 134.09911529 3.94661953 155.00204468 24.19512939 C179.66989349 50.44979889 182.98682509 89.1865824 181.9859314 123.46563721 C180.8067056 153.51121348 174.3410328 183.70550899 151.88095093 205.14044189 C145.51261589 210.48162612 138.5557143 214.04039722 130.88095093 217.14044189 C129.97216187 217.51169189 129.0633728 217.88294189 128.12704468 218.26544189 C110.43959409 225.10895051 91.35971367 224.32869966 72.69345093 224.41387939 C71.59732483 224.41920307 70.50119873 224.42452675 69.37185669 224.43001175 C63.58892522 224.45655518 57.8060141 224.47600379 52.02304077 224.49053955 C47.24713321 224.50395663 42.47164503 224.53197792 37.69589233 224.5725708 C31.90370655 224.62177524 26.11190489 224.64664179 20.31951904 224.65376663 C18.11865012 224.66048352 15.91778997 224.67571683 13.71704102 224.69965744 C10.64882002 224.73117941 7.58210294 224.73136727 4.51376343 224.72393799 C3.6077388 224.74034332 2.70171417 224.75674866 1.76823425 224.77365112 C-2.66981675 224.72959199 -4.54343897 224.57678242 -8.18264771 221.81808472 C-10.71719574 218.31332869 -10.73657223 216.12872179 -10.71279907 211.82794189 C-10.71283936 211.13660156 -10.71287964 210.44526123 -10.71292114 209.73297119 C-10.70758063 208.27723048 -10.6900602 206.82148908 -10.66104126 205.36602783 C-10.61916716 203.14670039 -10.61997739 200.93041061 -10.62686157 198.71075439 C-10.53710578 186.57111245 -10.53710578 186.57111245 -7.11904907 182.14044189 C-3.11904907 179.14044189 -3.11904907 179.14044189 12.88095093 178.14044189 C13.21095093 134.25044189 13.54095093 90.36044189 13.88095093 45.14044189 C7.94095093 45.14044189 2.00095093 45.14044189 -4.11904907 45.14044189 C-10.91919083 36.98027178 -10.35262837 31.86273411 -10.41421509 21.59283447 C-10.4257874 20.24767584 -10.44632167 18.90256496 -10.47573853 17.55767822 C-10.51837689 15.60512706 -10.5319753 13.65200999 -10.54483032 11.69903564 C-10.55941284 10.53686523 -10.57399536 9.37469482 -10.58901978 8.17730713 C-10.02221922 4.51474501 -8.98829383 3.40011819 -6.11904907 1.14044189 C-3.82916079 -0.00450225 -2.54554876 0.01007361 0 0 Z " fill="#FEFEFE" transform="translate(165.11904907226563,132.85955810546875)"/>
<path d="M0 0 C42.22504892 0 42.22504892 0 56.13671875 12.99609375 C69.4900095 26.84303665 71.71319069 47.03053422 71.46655273 65.4519043 C71.43728507 67.82996343 71.44607676 70.20581684 71.45898438 72.58398438 C71.43593256 89.55824004 68.36218941 107.42008122 56 120 C40.11007993 134.12437339 20.30427481 132 0 132 C0 88.44 0 44.88 0 0 Z " fill="#000000" transform="translate(227,179)"/>
</svg>
