<?xml version="1.0" encoding="UTF-8" standalone="no"?>
<!-- Created with Inkscape (http://www.inkscape.org/) -->

<svg
   width="1903"
   height="291"
   viewBox="0 0 503.50209 76.993751"
   version="1.1"
   id="svg1"
   xml:space="preserve"
   inkscape:version="1.3.2 (091e20e, 2023-11-25, custom)"
   sodipodi:docname="drawing.svg"
   xmlns:inkscape="http://www.inkscape.org/namespaces/inkscape"
   xmlns:sodipodi="http://sodipodi.sourceforge.net/DTD/sodipodi-0.dtd"
   xmlns="http://www.w3.org/2000/svg"
   xmlns:svg="http://www.w3.org/2000/svg"><sodipodi:namedview
     id="namedview1"
     pagecolor="#ffffff"
     bordercolor="#666666"
     borderopacity="1.0"
     inkscape:showpageshadow="2"
     inkscape:pageopacity="0.0"
     inkscape:pagecheckerboard="0"
     inkscape:deskcolor="#d1d1d1"
     inkscape:document-units="px"
     inkscape:zoom="0.68684764"
     inkscape:cx="972.55921"
     inkscape:cy="248.23555"
     inkscape:window-width="1920"
     inkscape:window-height="1009"
     inkscape:window-x="-8"
     inkscape:window-y="-8"
     inkscape:window-maximized="1"
     inkscape:current-layer="layer1" /><defs
     id="defs1" /><g
     inkscape:label="Layer 1"
     inkscape:groupmode="layer"
     id="layer1"><text
       xml:space="preserve"
       style="font-style:normal;font-weight:normal;font-size:10.5833px;line-height:1.25;font-family:sans-serif;fill:#000000;fill-opacity:1;stroke:none;stroke-width:0.264583"
       x="49.307392"
       y="35.43969"
       id="text1"><tspan
         sodipodi:role="line"
         x="49.307392"
         y="35.43969"
         style="stroke-width:0.264583"
         id="tspan5" /></text><g
       transform="matrix(0.55121494,0,0,0.55121494,58.035412,5.8390814)"
       id="g4"
       style="font-family:none;mix-blend-mode:normal;fill:none;fill-rule:evenodd;stroke:none;stroke-width:1;stroke-linecap:butt;stroke-linejoin:miter;stroke-miterlimit:10;stroke-dasharray:none;stroke-dashoffset:0"><path
         d="m 22.903,3.286 c 0.679,-0.381 1.515,-0.381 2.193,0 3.355,1.883 13.451,7.551 16.807,9.434 0.679,0.38 1.097,1.084 1.097,1.846 0,3.766 0,15.101 0,18.867 0,0.762 -0.418,1.466 -1.097,1.847 -3.355,1.883 -13.451,7.551 -16.807,9.434 -0.679,0.381 -1.515,0.381 -2.193,0 C 19.548,42.831 9.452,37.163 6.096,35.28 5.418,34.899 5,34.196 5,33.434 5,29.668 5,18.333 5,14.567 5,13.805 5.418,13.101 6.097,12.72 9.451,10.837 19.549,5.169 22.903,3.286 Z"
         fill="#000000"
         id="path1" /><path
         d="M 5.304,34.404 C 5.038,34.048 5,33.71 5,33.255 5,29.511 5,18.241 5,14.496 5,13.738 5.417,13.038 6.094,12.66 9.437,10.788 19.499,5.153 22.842,3.28 c 0.677,-0.379 1.594,-0.371 2.271,0.008 3.343,1.872 13.371,7.459 16.714,9.331 0.27,0.152 0.476,0.335 0.66,0.576 z"
         fill="#000000"
         id="path2" /><path
         d="m 24,10 c 7.727,0 14,6.273 14,14 0,7.727 -6.273,14 -14,14 -7.727,0 -14,-6.273 -14,-14 0,-7.727 6.273,-14 14,-14 z m 0,7 c 3.863,0 7,3.136 7,7 0,3.863 -3.137,7 -7,7 -3.863,0 -7,-3.137 -7,-7 0,-3.864 3.136,-7 7,-7 z"
         fill="#ffffff"
         id="path3" /><path
         d="m 42.485,13.205 c 0.516,0.483 0.506,1.211 0.506,1.784 0,3.795 -0.032,14.589 0.009,18.384 0.004,0.396 -0.127,0.813 -0.323,1.127 L 23.593,24 Z"
         fill="#000000"
         id="path4" /></g><path
       d="m 8.7280284,8.6418477 2.4046796,27.2713763 10.82449,3.59668 10.82449,-3.59668 2.40468,-27.2713763 z M 30.301218,14.154 l -0.33073,3.259061 -7.94439,3.396864 -0.0207,0.0069 h 7.68257 l -0.88195,10.10102 -6.76617,1.977485 -6.80751,-2.011936 -0.44097,-5.091851 h 3.36931 l 0.22048,2.638943 3.62424,0.916396 3.76894,-1.06109 0.25493,-4.244357 -11.45838,-0.03445 v -0.0069 l -0.0138,0.0069 -0.24805,-3.190159 7.7239,-3.217719 0.44787,-0.186035 h -8.46805 l -0.39963,-3.259061 z"
       id="path1-3"
       style="stroke-width:0.0689019" /><path
       d="m 117.35838,2.8636374 2.40468,27.2713756 10.79004,3.59668 10.85894,-3.59668 2.40468,-27.2713756 z m 21.23557,8.8125536 h -12.66417 l 0.2825,3.403754 h 12.09917 l -0.93706,10.225044 -6.7455,1.860351 v 0.02067 h -0.0758 l -6.80062,-1.881021 -0.41341,-5.222765 h 3.28662 l 0.24116,2.625163 3.68625,0.999078 3.70003,-0.999078 0.41341,-4.285699 H 123.1668 L 122.28486,8.3895704 h 16.61225 z"
       id="path1-4"
       style="stroke-width:0.0689019" /><path
       d="m 358.88757,13.543207 v 26.458334 h 26.45834 V 13.543207 Z m 14.39853,20.635138 c 0,2.574963 -1.5119,3.750233 -3.71479,3.750233 -1.99028,0 -3.14193,-1.027623 -3.73252,-2.273763 l 2.02572,-1.222517 c 0.38979,0.690988 0.74414,1.27567 1.60049,1.27567 0.81501,0 1.33473,-0.318918 1.33473,-1.565058 v -8.451311 h 2.48637 z m 5.88226,3.750233 c -2.3092,0 -3.80339,-1.098493 -4.52981,-2.539528 l 2.02572,-1.169363 c 0.53153,0.868164 1.22842,1.511904 2.45094,1.511904 1.02762,0 1.68908,-0.513811 1.68908,-1.228422 0,-0.850447 -0.67327,-1.151647 -1.81311,-1.653646 l -0.62011,-0.265765 c -1.79539,-0.761858 -2.98247,-1.724516 -2.98247,-3.750232 0,-1.866258 1.42331,-3.283668 3.63802,-3.283668 1.58277,0 2.7167,0.549246 3.53171,1.99028 l -1.93713,1.240235 c -0.42522,-0.761858 -0.88588,-1.063058 -1.60049,-1.063058 -0.72642,0 -1.18708,0.460658 -1.18708,1.063058 0,0.74414 0.46066,1.04534 1.52962,1.511905 l 0.62012,0.265764 c 2.1143,0.903599 3.30139,1.830822 3.30139,3.909691 0,2.232422 -1.75996,3.460845 -4.1164,3.460845 z"
       id="path1-9"
       style="stroke-width:0.0590588" /><path
       d="m 184.54995,16.56038 c -0.45476,-1.82492 -1.31701,-3.20099 -3.15374,-3.20099 h -2.36826 v 2.79939 c 0,2.17336 -1.84263,4.00418 -3.94513,4.00418 h -6.30747 c -1.72452,0 -3.15374,1.47647 -3.15374,3.2069 v 6.01218 c 0,1.7127 1.48828,2.7167 3.15374,3.20689 1.99618,0.58468 3.91559,0.69099 6.30747,0 1.58869,-0.46066 3.15374,-1.38788 3.15374,-3.20689 v -2.40369 h -6.30157 v -0.8032 h 9.46122 c 1.83673,0 2.5159,-1.28158 3.15374,-3.20099 0.66146,-1.97847 0.63193,-3.88016 0,-6.41378 z m -9.07143,12.01846 c 0.65555,0 1.18708,0.53744 1.18708,1.19889 0,0.66737 -0.53153,1.2048 -1.18708,1.2048 -0.64965,0 -1.18708,-0.54334 -1.18708,-1.2048 0.006,-0.66736 0.53743,-1.19889 1.18708,-1.19889 z m -6.99256,-9.20726 h 6.30748 c 1.75404,0 3.15374,-1.44694 3.15374,-3.2069 v -6.01809 c 0,-1.7127005 -1.44104,-2.9942805 -3.15374,-3.2836605 -2.11431,-0.34845 -4.41169,-0.33073 -6.30748,0.006 -2.66946,0.47247 -3.15374,1.45875 -3.15374,3.2836605 v 2.4037 h 6.31338 v 0.8032 h -8.68164 c -1.83673,0 -3.44312,1.1044 -3.94512,3.20098 -0.57878,2.40369 -0.6024,3.90379 0,6.41379 0.44884,1.86625 1.51781,3.20098 3.35453,3.20098 h 2.16746 v -2.88206 c 0,-2.08478 1.80129,-3.9215 3.94513,-3.9215 z m -0.3957,-8.42179 c -0.65555,0 -1.18708,-0.53743 -1.18708,-1.1988905 0.006,-0.66736 0.53153,-1.2048 1.18708,-1.2048 0.64965,0 1.18709,0.54334 1.18709,1.2048 0,0.6614605 -0.53153,1.1988905 -1.18709,1.1988905 z"
       id="path1-5"
       style="stroke-width:0.0590588" /><path
       d="m 225.25741,14.224297 c -0.27905,-0.09302 -0.55811,-0.180867 -0.83716,-0.263549 0.0465,-0.191203 0.0879,-0.382406 0.12919,-0.573609 0.63562,-3.079915 0.21704,-5.5552156 -1.19372,-6.3717036 -1.3591,-0.780314 -3.57601,0.03101 -5.81877,1.984375 -0.22221,0.191203 -0.43925,0.392741 -0.64596,0.594279 -0.13952,-0.134359 -0.28422,-0.268717 -0.42891,-0.397909 -2.35128,-2.087727 -4.70772,-2.966227 -6.11849,-2.144571 -1.35392,0.785481 -1.757,3.1160876 -1.18856,6.0306386 0.0568,0.289388 0.11886,0.573609 0.1912,0.862997 -0.33073,0.09302 -0.65629,0.19637 -0.96118,0.304891 -2.75952,0.956014 -4.73873,2.464965 -4.73873,4.025594 0,1.612304 2.1084,3.229777 4.97644,4.211629 0.23255,0.07751 0.46509,0.155029 0.7028,0.222209 -0.0775,0.310058 -0.14469,0.614949 -0.2067,0.930175 -0.5426,2.868043 -0.11886,5.141806 1.23506,5.92212 1.39527,0.806152 3.74138,-0.02067 6.02548,-2.020549 0.18086,-0.160197 0.36173,-0.325561 0.5426,-0.501261 0.22738,0.222208 0.46509,0.434082 0.7028,0.640788 2.21175,1.901692 4.39766,2.671671 5.74642,1.891357 1.39526,-0.806152 1.85001,-3.250448 1.2609,-6.22701 -0.0465,-0.227376 -0.0982,-0.45992 -0.15503,-0.697632 0.16537,-0.04651 0.32557,-0.09818 0.48576,-0.149862 2.98173,-0.98702 5.14181,-2.583821 5.14181,-4.221964 0,-1.565796 -2.03605,-3.085083 -4.84725,-4.051433 z m -6.99182,-4.3873286 c 1.92236,-1.674316 3.71553,-2.330607 4.53202,-1.860351 0.87333,0.501261 1.20923,2.5269766 0.66146,5.1883136 -0.0362,0.175699 -0.0724,0.346232 -0.11886,0.516764 -1.14721,-0.258382 -2.30993,-0.444417 -3.47782,-0.54777 -0.6718,-0.961182 -1.4056,-1.881022 -2.20142,-2.744019 0.20154,-0.191203 0.39791,-0.37207 0.60462,-0.5529376 z m -5.97897,11.1207686 c 0.26355,0.449585 0.53227,0.89917 0.81649,1.338419 -0.80615,-0.08785 -1.60714,-0.217041 -2.39779,-0.387573 0.22738,-0.744141 0.5116,-1.51412 0.84233,-2.299601 0.23771,0.454752 0.48059,0.904337 0.73897,1.348755 z m -1.56579,-6.216675 c 0.74414,-0.165365 1.53479,-0.299724 2.35644,-0.403076 -0.27388,0.428914 -0.5426,0.868164 -0.79581,1.312581 -0.25322,0.43925 -0.50127,0.888835 -0.73381,1.343587 -0.32556,-0.769979 -0.59945,-1.524455 -0.82682,-2.253092 z m 1.41593,3.560506 c 0.34107,-0.713135 0.71314,-1.410767 1.10588,-2.098063 0.39274,-0.687297 0.81648,-1.353923 1.2609,-2.010213 0.77515,-0.05684 1.5658,-0.08785 2.37195,-0.08785 0.80615,0 1.60197,0.03101 2.37195,0.08785 0.43925,0.651123 0.85783,1.317749 1.25574,1.999877 0.3979,0.682129 0.76997,1.379761 1.12137,2.087728 -0.34623,0.713135 -0.7183,1.415935 -1.11621,2.108399 -0.39274,0.687296 -0.81132,1.353922 -1.25057,2.015381 -0.76997,0.05684 -1.57096,0.08268 -2.38228,0.08268 -0.81132,0 -1.5968,-0.02584 -2.35645,-0.07235 -0.44958,-0.656286 -0.87333,-1.328079 -1.27124,-2.015376 -0.3979,-0.687296 -0.76481,-1.384928 -1.11104,-2.098063 z m 9.33277,2.645833 c 0.26355,-0.454752 0.51159,-0.914673 0.75447,-1.37976 0.33073,0.749308 0.62012,1.508951 0.87333,2.289266 -0.80098,0.180867 -1.6123,0.320393 -2.42879,0.413411 0.27905,-0.434082 0.5426,-0.878499 0.80099,-1.322917 z m 0.74414,-3.953247 c -0.24288,-0.454752 -0.49093,-0.909505 -0.74931,-1.353922 -0.25322,-0.43925 -0.51677,-0.873332 -0.79065,-1.302246 0.83199,0.103352 1.62781,0.242879 2.37195,0.413411 -0.23772,0.764811 -0.51677,1.508952 -0.83199,2.242757 z m -5.32784,-5.813599 c 0.5426,0.589112 1.05419,1.209229 1.52962,1.850017 -1.0232,-0.04651 -2.05156,-0.04651 -3.07475,0 0.50643,-0.666626 1.02836,-1.286743 1.54513,-1.850017 z m -5.99447,-3.1677646 c 0.86816,-0.506429 2.79569,0.217041 4.82658,2.0153806 0.12919,0.113688 0.25838,0.237712 0.39274,0.361735 -0.80099,0.862997 -1.53996,1.782837 -2.21692,2.744019 -1.16789,0.103353 -2.32544,0.28422 -3.47266,0.537435 -0.0672,-0.26355 -0.12402,-0.532268 -0.18086,-0.800985 -0.48576,-2.50114 -0.16537,-4.3873286 0.65112,-4.8575846 z m -1.26607,13.6219076 c -0.21704,-0.06201 -0.42892,-0.129191 -0.64079,-0.201538 -1.10071,-0.346232 -2.35128,-0.894002 -3.25562,-1.612305 -0.52193,-0.361735 -0.87333,-0.91984 -0.97151,-1.545125 0,-0.945679 1.63297,-2.154908 3.98942,-2.976563 0.29455,-0.103353 0.59428,-0.19637 0.894,-0.28422 0.3514,1.121378 0.77515,2.222086 1.26607,3.286621 -0.49609,1.080037 -0.92501,2.196248 -1.28157,3.33313 z m 6.02547,5.06429 c -0.85266,0.780314 -1.83968,1.400432 -2.91455,1.824178 -0.57361,0.273885 -1.23507,0.299724 -1.82418,0.06718 -0.82166,-0.475423 -1.16272,-2.299602 -0.69763,-4.754232 0.0568,-0.289388 0.11885,-0.578776 0.1912,-0.862997 1.15755,0.248047 2.32544,0.41858 3.50883,0.50643 0.68213,0.966349 1.43144,1.891357 2.23242,2.759521 -0.16536,0.160197 -0.33073,0.315226 -0.49609,0.45992 z m 1.26607,-1.255737 c -0.5271,-0.568441 -1.0542,-1.198893 -1.56579,-1.875855 0.49609,0.02067 1.00769,0.03101 1.52445,0.03101 0.53227,0 1.0542,-0.01034 1.57096,-0.03617 -0.47542,0.656291 -0.98702,1.281575 -1.52962,1.881022 z m 6.75411,1.550293 c -0.0465,0.630452 -0.35657,1.219564 -0.85266,1.617472 -0.82166,0.475424 -2.57349,-0.144694 -4.46484,-1.767334 -0.21704,-0.186035 -0.43409,-0.387573 -0.65629,-0.594279 0.79065,-0.873331 1.51928,-1.79834 2.18074,-2.769856 1.18339,-0.09819 2.36161,-0.279053 3.52433,-0.542603 0.0517,0.211873 0.0982,0.423747 0.13953,0.630452 0.25321,1.116211 0.29456,2.278931 0.12919,3.426148 z m 0.94051,-5.555217 c -0.14469,0.04651 -0.28939,0.09302 -0.43925,0.134359 -0.36173,-1.126546 -0.80615,-2.227254 -1.31775,-3.296956 0.4961,-1.054199 0.91468,-2.139405 1.26608,-3.250448 0.26871,0.07752 0.5271,0.160197 0.77514,0.242879 2.40812,0.826823 4.09794,2.056722 4.09794,2.997233 0,1.012859 -1.8035,2.320272 -4.38216,3.172933 z m -7.73596,-0.775146 c 1.30741,0 2.36678,-1.059367 2.36678,-2.366781 0,-1.307413 -1.05937,-2.36678 -2.36678,-2.36678 -1.30741,0 -2.36678,1.059367 -2.36678,2.36678 0,1.307414 1.05937,2.366781 2.36678,2.366781 z"
       id="path1-6"
       style="stroke-width:0.0516764" /><g
       id="g6"
       transform="matrix(0.26458334,0,0,0.26458334,249.8174,2.8232454)"><path
         d="M 40,45 H 13.458 C 11.394,44.941 5.225,44.763 5,36.671 V 25.723 L 10.251,17.065 17.889,10.398 27.094,7 36.4,7.014 c 3.582,0.612 5.798,2.677 6.411,5.9 L 43,12.721 V 42 c 0,1.654 -1.346,3 -3,3 z"
         id="path1-49" /><path
         fill="#ffffff"
         d="M 41.981,13.198 C 42.077,9.92 40.796,6.78 36.232,6 H 27.273 L 18.409,9.273 10.91,15.818 6,24 v 9.818 0.825 c 0.196,7.07 5.276,7.294 7.449,7.357 h -10e-4 c 10e-4,0 10e-4,0 0.002,0 0.002,0 0.005,0 0.008,0 H 40 c 1.105,0 2,-0.895 2,-2 V 13.179 Z M 14.473,41.987"
         id="path2-6" /><path
         d="M 40,43 H 13.5 c -0.552,0 -1,-0.448 -1,-1 0,-0.552 0.448,-1 1,-1 H 40 c 0.551,0 1,-0.449 1,-1 V 13.179 c 0,-0.552 0.448,-1 1,-1 0.552,0 1,0.448 1,1 V 40 c 0,1.654 -1.346,3 -3,3 z"
         id="path3-5" /><path
         d="m 41,42 c -0.256,0 -0.512,-0.098 -0.707,-0.293 l -8.818,-8.818 c -0.391,-0.391 -0.391,-1.023 0,-1.414 0.391,-0.391 1.023,-0.391 1.414,0 l 8.818,8.818 c 0.391,0.391 0.391,1.023 0,1.414 C 41.512,41.902 41.256,42 41,42 Z"
         id="path4-6" /><path
         d="m 9.272,29.909 c -0.48,0 -0.904,-0.347 -0.985,-0.835 -0.091,-0.545 0.277,-1.06 0.822,-1.151 l 9.5,-1.583 8.396,-8.44 2.804,-8.926 c 0.166,-0.527 0.727,-0.818 1.254,-0.654 0.527,0.166 0.82,0.727 0.654,1.254 l -2.877,9.159 c -0.048,0.153 -0.132,0.292 -0.245,0.405 l -8.795,8.84 c -0.147,0.148 -0.338,0.247 -0.544,0.281 l -9.818,1.636 c -0.056,0.01 -0.112,0.014 -0.166,0.014 z"
         id="path5" /><path
         d="m 30.764,10.273 c -0.097,0 -0.196,-0.015 -0.294,-0.044 -0.528,-0.162 -0.825,-0.721 -0.663,-1.25 L 29.856,8.82 c 0.162,-0.527 0.722,-0.821 1.25,-0.663 0.528,0.162 0.825,0.721 0.663,1.25 L 31.72,9.566 c -0.133,0.431 -0.529,0.707 -0.956,0.707 z"
         id="path6" /><path
         d="m 15.819,43 c -0.072,0 -0.145,-0.008 -0.218,-0.024 -0.539,-0.12 -0.879,-0.654 -0.759,-1.193 l 3.272,-14.727 c 0.062,-0.283 0.245,-0.524 0.5,-0.663 0.254,-0.138 0.558,-0.158 0.828,-0.057 l 13.091,4.909 c 0.517,0.194 0.779,0.771 0.585,1.288 -0.194,0.517 -0.77,0.777 -1.288,0.585 L 19.817,28.613 16.794,42.217 C 16.691,42.683 16.278,43 15.819,43 Z"
         id="path7" /><path
         d="m 13.448,43 c -0.51,0 -0.946,-0.388 -0.995,-0.906 -0.052,-0.55 0.352,-1.038 0.902,-1.089 7.393,-0.695 12.923,-5.052 17.358,-9.222 0.402,-0.378 1.035,-0.359 1.414,0.043 0.378,0.402 0.359,1.035 -0.043,1.414 -4.682,4.402 -10.546,9.004 -18.541,9.756 C 13.511,42.999 13.479,43 13.448,43 Z"
         id="path8" /><path
         d="m 31.447,33.519 c -0.247,0 -0.495,-0.091 -0.688,-0.274 -0.401,-0.38 -0.417,-1.013 -0.038,-1.414 3.307,-3.486 6.962,-7.769 8.998,-13.097 0.197,-0.517 0.772,-0.775 1.291,-0.577 0.516,0.197 0.774,0.775 0.577,1.291 -2.161,5.657 -5.972,10.13 -9.415,13.759 -0.196,0.208 -0.46,0.312 -0.725,0.312 z"
         id="path9" /><path
         d="m 32.182,33.182 c -0.405,0 -0.786,-0.248 -0.937,-0.649 L 26.336,19.442 c -0.115,-0.307 -0.072,-0.651 0.115,-0.921 0.187,-0.27 0.494,-0.43 0.822,-0.43 H 42 c 0.552,0 1,0.448 1,1 0,0.552 -0.448,1 -1,1 H 28.716 l 4.402,11.74 c 0.194,0.517 -0.068,1.093 -0.585,1.288 -0.116,0.042 -0.235,0.063 -0.351,0.063 z"
         id="path10" /><path
         d="m 40.653,20.091 c -0.119,0 -0.24,-0.021 -0.357,-0.066 -0.516,-0.197 -0.774,-0.775 -0.577,-1.292 0.184,-0.481 0.355,-0.972 0.511,-1.471 0.165,-0.528 0.728,-0.821 1.253,-0.656 0.527,0.165 0.821,0.726 0.656,1.253 -0.168,0.539 -0.354,1.069 -0.552,1.589 -0.152,0.398 -0.531,0.643 -0.934,0.643 z"
         id="path11" /><path
         d="m 41.147,18.633 c -0.227,0 -0.455,-0.077 -0.642,-0.234 L 26.63,6.766 C 26.207,6.412 26.151,5.781 26.506,5.357 26.86,4.934 27.49,4.878 27.915,5.233 L 41.79,16.867 c 0.423,0.354 0.479,0.985 0.124,1.409 -0.198,0.235 -0.481,0.357 -0.767,0.357 z"
         id="path12" /><path
         d="m 15.819,43 c -0.354,0 -0.697,-0.188 -0.879,-0.521 l -9.818,-18 C 4.857,23.994 5.036,23.387 5.521,23.122 6.008,22.858 6.614,23.037 6.878,23.521 l 9.818,18 c 0.265,0.485 0.086,1.092 -0.399,1.357 C 16.145,42.961 15.981,43 15.819,43 Z"
         id="path13" /><path
         d="m 13.459,43 c -0.01,0 -0.02,0 -0.029,0 C 11.4,42.941 5.225,42.765 5,34.671 V 24 c 0,-0.181 0.049,-0.359 0.143,-0.515 l 4.909,-8.182 c 0.054,-0.089 0.121,-0.17 0.2,-0.239 l 7.5,-6.545 c 0.092,-0.08 0.197,-0.143 0.312,-0.185 L 26.928,5.061 C 27.038,5.021 27.155,5 27.273,5 h 8.959 c 0.057,0 0.113,0.005 0.168,0.014 2.543,0.435 4.388,1.579 5.483,3.4 1.888,3.142 0.944,7.32 0.214,9.532 -0.173,0.524 -0.738,0.808 -1.264,0.636 C 40.309,18.409 40.024,17.843 40.197,17.318 40.699,15.8 41.7,11.993 40.168,9.444 39.399,8.164 38.045,7.341 36.145,7 H 27.452 L 18.928,10.147 11.686,16.468 7,24.277 v 10.366 c 0.172,6.177 4.437,6.299 6.487,6.357 0.552,0.016 0.987,0.476 0.971,1.028 C 14.442,42.571 13.998,43 13.459,43 Z"
         id="path14" /></g><path
       d="m 475.48598,24.082309 v 2.834821 c 0,2.610398 -5.9236,4.724703 -13.22917,4.724703 -7.30557,0 -13.22917,-2.114305 -13.22917,-4.724703 v -2.834821 c 0,-2.610398 5.9236,-4.724703 13.22917,-4.724703 7.30557,0 13.22917,2.114305 13.22917,4.724703 z m -3.23642,7.955218 c 1.22842,-0.437035 2.35644,-0.998094 3.23642,-1.689081 v 6.018089 c 0,2.610398 -5.9236,4.724703 -13.22917,4.724703 -7.30557,0 -13.22917,-2.114305 -13.22917,-4.724703 v -6.018089 c 0.87998,0.696893 2.008,1.252046 3.23642,1.689081 2.65174,0.94494 6.18346,1.494187 9.99275,1.494187 3.80929,0 7.34101,-0.549247 9.99275,-1.494187 z m -23.22192,7.760323 c 0.87998,0.696894 2.008,1.252047 3.23642,1.689082 2.65174,0.94494 6.18346,1.494187 9.99275,1.494187 3.80929,0 7.34101,-0.549247 9.99275,-1.494187 1.22842,-0.437035 2.35644,-0.998094 3.23642,-1.689082 V 44.871 c 0,2.610398 -5.9236,4.724702 -13.22917,4.724702 -7.30557,0 -13.22917,-2.114304 -13.22917,-4.724702 z"
       id="path1-8"
       style="stroke-width:0.0590588" /><path
       d="m 306.54446,14.7514 c -0.57418,-0.574182 -0.57418,-1.502061 0,-2.076244 0.57419,-0.574182 1.50666,-0.574182 2.08084,0 l 8.81945,8.819445 c 0.57418,0.574182 0.57418,1.506655 0,2.080837 l -8.81945,8.819445 c -0.57418,0.574183 -1.50665,0.574183 -2.08084,0 -0.57418,-0.574183 -0.57418,-1.506655 0,-2.080838 l 7.77673,-7.781322 z m 11.32748,15.13086 h 13.22917 c 0.81304,0 1.4699,0.656865 1.4699,1.469907 0,0.813043 -0.65686,1.469908 -1.4699,1.469908 h -13.22917 c -0.81304,0 -1.46991,-0.656865 -1.46991,-1.469908 0,-0.813042 0.65687,-1.469907 1.46991,-1.469907 z"
       id="path1-2"
       style="stroke-width:0.0459346" /><g
       id="surface1"
       transform="matrix(0.26458334,0,0,0.26458334,46.935196,33.95047)"><path
         style="fill:#000000;fill-opacity:1;fill-rule:evenodd;stroke:none"
         d="m 61.113281,25.859375 c -5.292969,12.902344 -8.484375,21.34375 -14.375,33.863281 3.613281,3.804688 8.046875,8.242188 15.246094,13.25 C 54.242188,69.804688 48.964844,66.625 45.015625,63.324219 37.476562,78.96875 25.664062,101.25781 1.691406,144.09375 20.535156,133.27734 35.140625,126.60938 48.75,124.0625 c -0.585938,-2.5 -0.917969,-5.20312 -0.894531,-8.02344 l 0.02344,-0.60156 c 0.296875,-12.00391 6.578125,-21.238281 14.015625,-20.609375 7.4375,0.625 13.222657,10.871095 12.921875,22.875005 -0.05469,2.26171 -0.3125,4.43359 -0.761718,6.44921 13.464843,2.6211 27.914059,9.27344 46.499999,19.94141 -3.66406,-6.70703 -6.9336,-12.75781 -10.0586,-18.51953 -4.92187,-3.79297 -10.05468,-8.72656 -20.523431,-14.07422 7.195313,1.86328 12.347651,4.00781 16.363281,6.40625 C 74.578125,59.09375 72.003906,51.28125 61.113281,25.859375 Z m 0,0"
         id="path223" /><path
         style="fill:#000000;fill-opacity:1;fill-rule:nonzero;stroke:none"
         d="m 121.14063,133.54297 v -3.24219 h -1.21485 v -0.43359 h 2.92969 v 0.43359 h -1.22266 v 3.24219 h -0.49218"
         id="path225" /><path
         style="fill:#000000;fill-opacity:1;fill-rule:nonzero;stroke:none"
         d="m 123.36328,133.54297 v -3.67578 h 0.73438 l 0.875,2.60156 c 0.082,0.24219 0.14062,0.42578 0.17578,0.54297 0.043,-0.13281 0.10937,-0.32813 0.19922,-0.58594 l 0.88281,-2.55859 h 0.66016 v 3.67578 h -0.47266 v -3.07813 l -1.07422,3.07813 h -0.44141 l -1.0664,-3.12891 v 3.12891 h -0.47266"
         id="path227" /></g><path
       fill="#F"
       d="M 204.82471,56.101875 190.24194,41.519629 c -0.83926,-0.839787 -2.20133,-0.839787 -3.04192,0 l -3.02789,3.028421 3.84122,3.841221 c 0.89297,-0.30136 1.91638,-0.09922 2.62785,0.612246 0.71516,0.715962 0.91572,1.748102 0.60695,2.643981 l 3.70205,3.702315 c 0.89561,-0.308769 1.92934,-0.109273 2.64425,0.607218 1.00012,0.999332 1.00012,2.619375 0,3.619236 a 2.5593146,2.5593146 0 0 1 -3.6203,0 2.560373,2.560373 0 0 1 -0.55695,-2.783682 l -3.45228,-3.452283 -5.3e-4,9.086056 a 2.568575,2.568575 0 0 1 0.67707,0.483659 c 0.9996,0.999331 0.9996,2.618846 0,3.620294 -0.99986,0.999331 -2.62043,0.999331 -3.61924,0 -0.99959,-1.001184 -0.99959,-2.620698 0,-3.620294 a 2.5532292,2.5532292 0 0 1 0.83794,-0.558271 v -9.170194 a 2.5349729,2.5349729 0 0 1 -0.83794,-0.558535 c -0.75723,-0.756709 -0.93953,-1.867959 -0.55112,-2.798233 l -3.78698,-3.786982 -9.99914,9.998604 a 2.1518563,2.1518563 0 0 0 0,3.042709 l 14.58304,14.582246 c 0.83979,0.839787 2.20134,0.839787 3.04245,0 l 14.51451,-14.514513 a 2.1523854,2.1523854 0 0 0 -2.7e-4,-3.042973 z"
       id="path1-1"
       style="stroke-width:0.264583" /></g></svg>
