<svg xmlns="http://www.w3.org/2000/svg" x="0px" y="0px" width="100px" viewBox="0 0 48 48">
<path d="M40,45H13.458C11.394,44.941,5.225,44.763,5,36.671l0-10.948l5.251-8.658l7.638-6.667L27.094,7L36.4,7.014&#9;c3.582,0.612,5.798,2.677,6.411,5.9L43,12.721V42C43,43.654,41.654,45,40,45z"/><path fill="#fff" d="M41.981,13.198C42.077,9.92,40.796,6.78,36.232,6h-8.959l-8.864,3.273l-7.499,6.545L6,24v9.818v0.825&#9;c0.196,7.07,5.276,7.294,7.449,7.357l-0.001,0c0.001,0,0.001,0,0.002,0c0.002,0,0.005,0,0.008,0H40c1.105,0,2-0.895,2-2V13.179&#9;L41.981,13.198z M14.473,41.987"/><path d="M40,43H13.5c-0.552,0-1-0.448-1-1s0.448-1,1-1H40c0.551,0,1-0.449,1-1V13.179c0-0.552,0.448-1,1-1s1,0.448,1,1V40&#9;C43,41.654,41.654,43,40,43z"/><path d="M41,42c-0.256,0-0.512-0.098-0.707-0.293l-8.818-8.818c-0.391-0.391-0.391-1.023,0-1.414s1.023-0.391,1.414,0l8.818,8.818&#9;c0.391,0.391,0.391,1.023,0,1.414C41.512,41.902,41.256,42,41,42z"/><path d="M9.272,29.909c-0.48,0-0.904-0.347-0.985-0.835c-0.091-0.545,0.277-1.06,0.822-1.151l9.5-1.583l8.396-8.44l2.804-8.926&#9;c0.166-0.527,0.727-0.818,1.254-0.654c0.527,0.166,0.82,0.727,0.654,1.254l-2.877,9.159c-0.048,0.153-0.132,0.292-0.245,0.405&#9;L19.8,27.978c-0.147,0.148-0.338,0.247-0.544,0.281l-9.818,1.636C9.382,29.905,9.326,29.909,9.272,29.909z"/><path d="M30.764,10.273c-0.097,0-0.196-0.015-0.294-0.044c-0.528-0.162-0.825-0.721-0.663-1.25l0.049-0.159&#9;c0.162-0.527,0.722-0.821,1.25-0.663c0.528,0.162,0.825,0.721,0.663,1.25l-0.049,0.159C31.587,9.997,31.191,10.273,30.764,10.273z"/><path d="M15.819,43c-0.072,0-0.145-0.008-0.218-0.024c-0.539-0.12-0.879-0.654-0.759-1.193l3.272-14.727&#9;c0.062-0.283,0.245-0.524,0.5-0.663c0.254-0.138,0.558-0.158,0.828-0.057l13.091,4.909c0.517,0.194,0.779,0.771,0.585,1.288&#9;c-0.194,0.517-0.77,0.777-1.288,0.585l-12.013-4.505l-3.023,13.604C16.691,42.683,16.278,43,15.819,43z"/><path d="M13.448,43c-0.51,0-0.946-0.388-0.995-0.906c-0.052-0.55,0.352-1.038,0.902-1.089c7.393-0.695,12.923-5.052,17.358-9.222&#9;c0.402-0.378,1.035-0.359,1.414,0.043c0.378,0.402,0.359,1.035-0.043,1.414c-4.682,4.402-10.546,9.004-18.541,9.756&#9;C13.511,42.999,13.479,43,13.448,43z"/><path d="M31.447,33.519c-0.247,0-0.495-0.091-0.688-0.274c-0.401-0.38-0.417-1.013-0.038-1.414&#9;c3.307-3.486,6.962-7.769,8.998-13.097c0.197-0.517,0.772-0.775,1.291-0.577c0.516,0.197,0.774,0.775,0.577,1.291&#9;c-2.161,5.657-5.972,10.13-9.415,13.759C31.976,33.415,31.712,33.519,31.447,33.519z"/><path d="M32.182,33.182c-0.405,0-0.786-0.248-0.937-0.649l-4.909-13.091c-0.115-0.307-0.072-0.651,0.115-0.921&#9;c0.187-0.27,0.494-0.43,0.822-0.43H42c0.552,0,1,0.448,1,1s-0.448,1-1,1H28.716l4.402,11.74c0.194,0.517-0.068,1.093-0.585,1.288&#9;C32.417,33.161,32.298,33.182,32.182,33.182z"/><path d="M40.653,20.091c-0.119,0-0.24-0.021-0.357-0.066c-0.516-0.197-0.774-0.775-0.577-1.292c0.184-0.481,0.355-0.972,0.511-1.471&#9;c0.165-0.528,0.728-0.821,1.253-0.656c0.527,0.165,0.821,0.726,0.656,1.253c-0.168,0.539-0.354,1.069-0.552,1.589&#9;C41.435,19.846,41.056,20.091,40.653,20.091z"/><path d="M41.147,18.633c-0.227,0-0.455-0.077-0.642-0.234L26.63,6.766c-0.423-0.354-0.479-0.985-0.124-1.409&#9;c0.354-0.423,0.984-0.479,1.409-0.124L41.79,16.867c0.423,0.354,0.479,0.985,0.124,1.409C41.716,18.511,41.433,18.633,41.147,18.633&#9;z"/><path d="M15.819,43c-0.354,0-0.697-0.188-0.879-0.521l-9.818-18c-0.265-0.485-0.086-1.092,0.399-1.357&#9;c0.487-0.264,1.093-0.085,1.357,0.399l9.818,18c0.265,0.485,0.086,1.092-0.399,1.357C16.145,42.961,15.981,43,15.819,43z"/><path d="M13.459,43c-0.01,0-0.02,0-0.029,0C11.4,42.941,5.225,42.765,5,34.671L5,24c0-0.181,0.049-0.359,0.143-0.515l4.909-8.182&#9;c0.054-0.089,0.121-0.17,0.2-0.239l7.5-6.545c0.092-0.08,0.197-0.143,0.312-0.185l8.864-3.273C27.038,5.021,27.155,5,27.273,5h8.959&#9;c0.057,0,0.113,0.005,0.168,0.014c2.543,0.435,4.388,1.579,5.483,3.4c1.888,3.142,0.944,7.32,0.214,9.532&#9;c-0.173,0.524-0.738,0.808-1.264,0.636c-0.524-0.173-0.809-0.739-0.636-1.264c0.502-1.518,1.503-5.325-0.029-7.874&#9;C39.399,8.164,38.045,7.341,36.145,7h-8.693l-8.524,3.147l-7.242,6.321L7,24.277v10.366c0.172,6.177,4.437,6.299,6.487,6.357&#9;c0.552,0.016,0.987,0.476,0.971,1.028C14.442,42.571,13.998,43,13.459,43z"/>
</svg>