<?xml version="1.0" encoding="UTF-8" standalone="no"?>
<svg
   version="1.1"
   width="1080.1077"
   height="343.56"
   viewBox="0 0 1080.1077 343.56"
   xml:space="preserve"
   id="svg12"
   xmlns="http://www.w3.org/2000/svg"
   xmlns:svg="http://www.w3.org/2000/svg">
<defs
   id="defs1" />




<g
   id="g14"
   transform="translate(1222.3017,-603.95894)"><g
     transform="matrix(1.0000926,0,0,0.31811111,-682.24789,775.73894)"
     id="cf3608ad-e2eb-4f09-a8f8-fc2a27fc29c9">
<rect
   style="opacity:1;fill:#ffffff;fill-rule:nonzero;stroke:none;stroke-width:1;stroke-linecap:butt;stroke-linejoin:miter;stroke-miterlimit:4;stroke-dasharray:none;stroke-dashoffset:0"
   vector-effect="non-scaling-stroke"
   x="-540"
   y="-540"
   rx="0"
   ry="0"
   width="1080"
   height="1080"
   id="rect2" />
</g><g
     transform="matrix(4.09,0,0,4.09,-682.42172,775.73894)"
     id="g12">
<g
   id="g11">
		<g
   transform="matrix(0.84,0,0,0.84,-90,0)"
   id="g7">
<path
   style="opacity:1;fill:#111111;fill-rule:nonzero;stroke:none;stroke-width:1;stroke-linecap:butt;stroke-linejoin:miter;stroke-miterlimit:4;stroke-dasharray:none;stroke-dashoffset:0"
   vector-effect="non-scaling-stroke"
   transform="translate(-50,-50)"
   d="M 0,0 H 100 V 100 H 0 Z"
   stroke-linecap="round"
   id="path6" />
</g>
		<g
   transform="matrix(3.09,0,0,3.09,-90,-0.12)"
   id="g8">
<path
   style="opacity:1;fill:#ffffff;fill-rule:nonzero;stroke:none;stroke-width:1;stroke-linecap:butt;stroke-linejoin:miter;stroke-miterlimit:4;stroke-dasharray:none;stroke-dashoffset:0"
   vector-effect="non-scaling-stroke"
   transform="translate(-7.27,-12.6)"
   d="m 0.80078,5.195 h 5.6836 q 1.015625,0 1.9482422,0.2636719 0.9326172,0.2636718 1.7382998,0.74219 0.805683,0.4785181 1.4648,1.1475 0.659117,0.6689819 1.1279,1.4893 0.468783,0.8203181 0.72266,1.7676001 0.253877,0.947282 0.25391,1.9727 3.3e-5,1.025418 -0.25391,1.9727 -0.253943,0.947282 -0.72266,1.7725 -0.468717,0.825218 -1.1279,1.5039 -0.659183,0.678682 -1.4648,1.1621 -0.805617,0.483418 -1.7382998,0.74707 -0.9326828,0.263652 -1.9482,0.26367 H 0.80082219 v -2.6758 H 1.9824222 V 7.8807019 H 0.80082219 v -2.6855 z M 5.2246,7.881 v 9.4434 h 1.2402 q 0.7910156,0 1.4941406,-0.371094 0.703125,-0.371094 1.2207,-1.0107 0.517575,-0.639606 0.82031,-1.5039 0.3027354,-0.864293 0.3027304,-1.8604 0,-0.986328 -0.3027348,-1.845703 Q 9.6972119,9.8732281 9.1796363,9.2385031 8.6620606,8.6037781 7.9589362,8.2424131 q -0.7031243,-0.361365 -1.4941,-0.36133 h -1.2402 z"
   stroke-linecap="round"
   id="path7" />
</g>
		<g
   transform="translate(52,-26.2)"
   id="g9">
<path
   style="opacity:1;fill:#111111;fill-rule:nonzero;stroke:none;stroke-width:1;stroke-linecap:butt;stroke-linejoin:miter;stroke-miterlimit:4;stroke-dasharray:none;stroke-dashoffset:0"
   vector-effect="non-scaling-stroke"
   transform="translate(-80.52,-12.53)"
   d="m 0.80078,5.195 h 5.6836 q 1.015625,0 1.9482422,0.2636719 0.9326172,0.2636718 1.7382998,0.74219 0.805683,0.4785181 1.4648,1.1475 0.659117,0.6689819 1.1279,1.4893 0.468783,0.8203181 0.72266,1.7676001 0.253877,0.947282 0.25391,1.9727 3.3e-5,1.025418 -0.25391,1.9727 -0.253943,0.947282 -0.72266,1.7725 -0.468717,0.825218 -1.1279,1.5039 -0.659183,0.678682 -1.4648,1.1621 -0.805617,0.483418 -1.7382998,0.74707 -0.9326828,0.263652 -1.9482,0.26367 H 0.80082219 v -2.6758 H 1.9824222 V 7.8807019 H 0.80082219 v -2.6855 z M 5.2246,7.881 v 9.4434 h 1.2402 q 0.7910156,0 1.4941406,-0.371094 0.703125,-0.371094 1.2207,-1.0107 0.517575,-0.639606 0.82031,-1.5039 0.3027354,-0.864293 0.3027304,-1.8604 0,-0.986328 -0.3027348,-1.845703 Q 9.6972119,9.8732281 9.1796363,9.2385031 8.6620606,8.6037781 7.9589362,8.2424131 q -0.7031243,-0.361365 -1.4941,-0.36133 h -1.2402 z M 15.439438,5.195 h 11.776999 v 5.0488 h -3.1836 V 8.1442 h -3.7988 v 2.9199 h 2.9395 v 2.832 h -2.9395 v 3.4277 h 3.7988 v -2.627 h 3.1836 v 5.3027 h -11.777 v -2.6758 h 1.5527 V 8.144 h -1.5527 V 5.1948 Z m 13.476562,0 h 11.777 v 5.0488 H 37.5094 V 8.1442 h -3.7988 v 2.9199 h 2.9395 v 2.832 h -2.9395 v 3.4277 h 3.7988 v -2.627 h 3.1836 v 5.3027 H 28.916 v -2.6758 h 1.5527 V 8.144 H 28.916 V 5.1948 Z m 13.476562,0 h 6.8359 q 1.142579,0 2.09961,0.3564453 0.957031,0.3564453 1.6504,0.96191 0.693369,0.6054647 1.084,1.3965 0.390631,0.7910353 0.39063,1.6504 0,1.0351567 -0.307617,1.9384767 -0.307617,0.90332 -0.95215,1.5674 -0.644533,0.66408 -1.6309,1.0498 -0.986367,0.38572 -2.334,0.38574 h -2.0605 v 2.8223 h 1.3574 v 2.6758 h -6.1328 v -2.6758 h 1.5332 V 7.8805719 h -1.5332 v -2.6855 z m 4.775401,2.686 v 3.9746 h 1.337899 q 1.113282,0 1.767579,-0.46875 0.654296,-0.46875 0.6543,-1.4844 0,-0.9472656 -0.615235,-1.484375 -0.615234,-0.5371094 -1.8066,-0.53711 h -1.3379 z m 11.435575,9.4432 h 1.5332 v -9.541 h -1.7969 v 1.9141 h -3.1836 v -4.502 h 13.467 v 4.502 H 65.420137 V 7.7832 h -2.041 v 9.541 h 1.5625 V 20 h -6.3379 v -2.6758 z m 18.066381,0 h 1.4746 l -0.66406,-2.1289 h -4.5508 l -0.66406,2.1289 h 1.5625 V 20 h -5.6152 v -2.6758 h 1.1035 l 4.0332,-12.129 h 3.916 l 3.9453,12.129 h 1.0742 V 20 h -5.6152 v -2.6758 z m -2.9687,-4.6289 h 2.9883 l -1.5039,-4.8145 z M 92.968766,5.195 h 5.625 v 2.6855 h -1.2012 v 12.119 h -3.2422 l -6.1621,-9.5703 v 6.8945 h 1.2402 v 2.6758 h -5.6152 v -2.6758 h 1.2207 V 7.8803 h -1.2012 V 5.1948 h 4.4727 l 6.123,9.6973 V 7.8804 h -1.2598 V 5.1949 Z M 110.9278,20 v -2.5391 q -0.60547,1.064453 -1.18164,1.5625 -0.57618,0.498047 -1.3037,0.80078 -0.72753,0.302733 -1.9482,0.29297 -0.60547,-0.0098 -1.21094,-0.141602 -0.60547,-0.131836 -1.1719,-0.37109 -0.56643,-0.239254 -1.1084,-0.57617 -0.54197,-0.336916 -0.98145,-0.77637 -1.08399,-1.09375 -1.68457,-2.534179 -0.600588,-1.44043 -0.600592,-3.1396 0,-1.044922 0.253907,-2.021485 0.253905,-0.9765621 0.712885,-1.8261996 0.45899,-0.8496375 1.1084,-1.5479 0.64942,-0.6982625 1.4453,-1.1963 0.79589,-0.4980375 1.7139,-0.77148 0.91802,-0.2734425 1.9238,-0.27344 1.15235,0 2.00196,0.3076172 0.84961,0.3076171 1.8262,1.1475 h 2.1875 v 3.3008 h -3.0176 q -0.44922,-0.6933594 -0.84473,-1.0058594 -0.39551,-0.3125 -0.85938,-0.51758 -0.46387,-0.20508 -1.2939,-0.20508 -0.82031,0 -1.52344,0.3710937 -0.70312,0.3710938 -1.2158,1.001 -0.51267,0.6299063 -0.80566,1.4844001 -0.29298,0.854494 -0.29297,1.7529 0,0.888672 0.26368,1.689453 0.26367,0.800781 0.80078,1.4404 0.5371,0.639619 1.25,0.98145 0.71289,0.341831 1.5234,0.3418 1.03515,0 1.80664,-0.605469 0.77148,-0.605468 1.1133,-1.6504 h -2.8223 v -2.6758 h 6.8555 v 7.9004 h -2.9199 z M 123.29106,9.365 q -0.0488,-0.3417969 -0.23926,-0.6445312 -0.19043,-0.3027344 -0.48828,-0.52246 -0.29785,-0.2197257 -0.67383,-0.3466801 -0.37598,-0.1269543 -0.78613,-0.12695 -0.37109,0 -0.69336,0.078125 -0.32226,0.078125 -0.56152,0.2392601 -0.23925,0.1611349 -0.38086,0.4150399 -0.1416,0.253905 -0.1416,0.60547 0,0.4394532 0.19043,0.6982422 0.19043,0.2587891 0.48828,0.4248001 0.29785,0.166011 0.65918,0.26367 0.36133,0.09766 0.70313,0.21484 l 2.6855,0.89844 q 0.55664,0.195312 1.04492,0.537109 0.48829,0.341797 0.84473,0.83008 0.35645,0.488283 0.56152,1.123 0.20508,0.634717 0.20508,1.4258 0,1.074219 -0.3955,1.962891 -0.39551,0.888672 -1.1084,1.5234 -0.7129,0.634728 -1.709,0.98633 -0.99611,0.351602 -2.207,0.35156 -0.84961,0 -1.60645,-0.19043 -0.75684,-0.190429 -1.3818,-0.55176 -0.62496,-0.36133 -1.0938,-0.86426 -0.46884,-0.502929 -0.73242,-1.1377 h -1.0059 v -2.9395 h 3.5352 v 0.60547 q 0,0.439453 0.1416,0.810547 0.1416,0.371094 0.4248,0.64453 0.2832,0.273436 0.71289,0.4248 0.42969,0.151364 1.0059,0.15137 0.87891,0 1.33789,-0.405273 0.45899,-0.405274 0.45898,-1.1279 0,-0.371094 -0.16113,-0.620118 -0.16113,-0.249023 -0.41504,-0.41992 -0.25391,-0.170896 -0.56641,-0.28809 -0.3125,-0.117193 -0.61523,-0.21484 l -2.2363,-0.72266 q -0.63477,-0.195312 -1.22559,-0.546875 -0.59082,-0.351562 -1.0449,-0.87891 -0.45408,-0.527347 -0.72266,-1.2354 -0.26858,-0.708052 -0.26855,-1.6161995 0,-1.0546875 0.39063,-1.8798828 0.39062,-0.8251953 1.0938,-1.3916 0.70317,-0.5664047 1.6699,-0.85938 0.96672,-0.2929753 2.1191,-0.29297 0.9082,0 1.67969,0.2099609 0.77148,0.209961 1.3818,0.56152 0.61031,0.3515591 1.0352,0.80566 0.42488,0.454101 0.64941,0.94238 h 0.97656 v 2.9492004 h -3.5352 V 9.3648256 Z m 14.9515,-4.17 h 6.3477 v 2.6855 h -1.5625 v 9.4434 h 1.5625 v 2.6758 h -6.3477 v -2.6758 h 1.543 v -3.7891 h -6.6797 v 3.7891 h 1.5625 v 2.6758 h -6.3379 v -2.6758 h 1.5332 V 7.8805 h -1.5332 V 5.195 h 6.3379 v 2.6855 h -1.5625 v 3.0762 h 6.6797 V 7.8805 h -1.543 z m 7.93908,0 h 5.9375 v 2.6855 h -1.3574 v 6.1426 q 0,0.839844 0.19043,1.425781 0.19043,0.585938 0.53223,0.95703 0.3418,0.371093 0.81055,0.54199 0.46875,0.170898 1.0254,0.1709 0.57618,0 1.04981,-0.146484 0.47363,-0.146485 0.81055,-0.50293 0.33692,-0.356446 0.51758,-0.95215 0.18066,-0.595705 0.18066,-1.4941 V 7.8805369 h -1.5723 v -2.6855 h 5.9375 v 2.6855 h -1.1816 v 5.7617001 q 0,1.5625 -0.44922,2.77832 -0.44922,1.215821 -1.2354,2.0557 -0.78618,0.83988 -1.8457,1.2793 -1.05952,0.439421 -2.2705,0.43945 -1.20117,0 -2.24609,-0.43457 -1.04493,-0.43457 -1.8213,-1.2598 -0.77638,-0.82523 -1.2256,-2.0068 -0.44923,-1.18157 -0.44922,-2.6758 V 7.8805369 h -1.3379 v -2.6855 z"
   stroke-linecap="round"
   id="path8" />
</g>
		<g
   transform="matrix(2.71,0,0,2.71,52,13.04)"
   id="g10">
<path
   style="opacity:1;fill:#111111;fill-rule:nonzero;stroke:none;stroke-width:1;stroke-linecap:butt;stroke-linejoin:miter;stroke-miterlimit:4;stroke-dasharray:none;stroke-dashoffset:0"
   vector-effect="non-scaling-stroke"
   transform="translate(-29.96,-12.53)"
   d="M 8.2227,9.365 Q 8.1738719,9.0232031 7.9834422,8.7204688 7.7930125,8.4177344 7.4951622,8.1980088 7.1973119,7.9782831 6.8213322,7.8513287 q -0.3759797,-0.1269543 -0.78613,-0.12695 -0.3710938,0 -0.6933594,0.078125 -0.3222656,0.078125 -0.56152,0.2392601 -0.2392544,0.1611349 -0.38086,0.4150399 -0.1416056,0.253905 -0.1416,0.60547 0,0.4394532 0.1904297,0.6982422 0.1904297,0.2587891 0.48828,0.4248001 0.2978503,0.166011 0.65918,0.26367 0.3613297,0.09766 0.70313,0.21484 l 2.6855,0.89844 q 0.5566406,0.195312 1.0449215,0.537109 0.488282,0.341797 0.84473,0.83008 0.356449,0.488283 0.56152,1.123 0.205072,0.634717 0.20508,1.4258 0,1.074219 -0.395507,1.962891 -0.395508,0.888672 -1.1084,1.5234 -0.7128926,0.634728 -1.7090004,0.98633 -0.9961079,0.351602 -2.207,0.35156 -0.8496094,0 -1.6064454,-0.19043 -0.7568359,-0.190429 -1.3818,-0.55176 -0.624964,-0.36133 -1.0938,-0.86426 -0.4688359,-0.502929 -0.73242,-1.1377 H 0.40036125 v -2.9395 H 3.9355612 v 0.60547 q 0,0.439453 0.1416016,0.810547 0.1416016,0.371094 0.4248,0.64453 0.2831984,0.273436 0.71289,0.4248 0.4296916,0.151364 1.0059,0.15137 0.8789063,0 1.3378906,-0.405273 0.4589844,-0.405274 0.45898,-1.1279 0,-0.371094 -0.1611328,-0.620118 -0.1611328,-0.249023 -0.41504,-0.41992 -0.2539072,-0.170896 -0.56641,-0.28809 -0.3125028,-0.117193 -0.61523,-0.21484 l -2.2363,-0.72266 Q 3.388745,13.26139 2.7979247,12.909827 2.2071044,12.558265 1.7530247,12.030917 1.298945,11.50357 1.0303647,10.795517 0.76178437,10.087465 0.76181469,9.1793175 q 0,-1.0546875 0.39062501,-1.8798828 0.390625,-0.8251953 1.0938,-1.3916 0.703175,-0.5664047 1.6699,-0.85938 0.966725,-0.2929753 2.1191,-0.29297 0.9082031,0 1.6796875,0.2099609 0.7714844,0.209961 1.3818,0.56152 0.6103156,0.3515591 1.0351998,0.80566 0.424885,0.454101 0.64941,0.94238 h 0.97656 V 10.224206 H 8.2226972 V 9.3648256 Z m 12.656203,7.9592 h 1.4746 l -0.66406,-2.1289 h -4.5508 l -0.66406,2.1289 h 1.5625 V 20 h -5.6152 v -2.6758 h 1.1035 l 4.0332,-12.129 h 3.916 l 3.9453,12.129 h 1.0742 V 20 h -5.6152 v -2.6758 z m -2.9687,-4.6289 h 2.9883 l -1.5039,-4.8145 z M 37.73475,5.195 h 6.3477 v 2.6855 h -1.5625 v 9.4434 h 1.5625 v 2.6758 h -6.3477 v -2.6758 h 1.543 v -3.7891 h -6.6797 v 3.7891 h 1.5625 v 2.6758 h -6.3379 v -2.6758 h 1.5332 V 7.8805 h -1.5332 V 5.195 h 6.3379 v 2.6855 h -1.5625 v 3.0762 h 6.6797 V 7.8805 h -1.543 V 5.195 Z m 16.161731,12.1292 h 1.4746 l -0.66406,-2.1289 h -4.5508 l -0.66406,2.1289 h 1.5625 V 20 h -5.6152 v -2.6758 h 1.1035 l 4.0332,-12.129 h 3.916 l 3.9453,12.129 h 1.0742 V 20 h -5.6152 v -2.6758 z m -2.9687,-4.6289 h 2.9883 l -1.5039,-4.8145 z"
   stroke-linecap="round"
   id="path9" />
</g>
</g>
</g></g>
</svg>
